{"asset":{"version":"2.0","generator":"gltfpack 1.3"},"extensionsUsed":["KHR_texture_transform","KHR_materials_ior","KHR_materials_specular"],"buffers":[{"uri":"island_tree_02.bin","byteLength":2317816}],"bufferViews":[{"buffer":0,"byteOffset":0,"byteLength":798420,"byteStride":12,"target":34962},{"buffer":0,"byteOffset":798420,"byteLength":798420,"byteStride":12,"target":34962},{"buffer":0,"byteOffset":1596840,"byteLength":532280,"byteStride":8,"target":34962},{"buffer":0,"byteOffset":2129120,"byteLength":188694,"target":34963}],"accessors":[{"bufferView":0,"byteOffset":0,"componentType":5126,"count":1151,"type":"VEC3","min":[-1.11616921,-0.010234125,-0.443905324],"max":[1.24167979,2.59856129,2.26221991]},{"bufferView":1,"byteOffset":0,"componentType":5126,"count":1151,"type":"VEC3"},{"bufferView":2,"byteOffset":0,"componentType":5126,"count":1151,"type":"VEC2"},{"bufferView":3,"byteOffset":0,"componentType":5123,"count":4560,"type":"SCALAR"},{"bufferView":0,"byteOffset":13812,"componentType":5126,"count":55620,"type":"VEC3","min":[-1.84953022,1.24771488,-1.09997702],"max":[1.993155,3.38946342,2.9344244]},{"bufferView":1,"byteOffset":13812,"componentType":5126,"count":55620,"type":"VEC3"},{"bufferView":2,"byteOffset":9208,"componentType":5126,"count":55620,"type":"VEC2"},{"bufferView":3,"byteOffset":9120,"componentType":5123,"count":64326,"type":"SCALAR"},{"bufferView":0,"byteOffset":681252,"componentType":5126,"count":9764,"type":"VEC3","min":[-2.05233788,1.31920505,-0.96513474],"max":[2.15540743,3.33924079,2.83090568]},{"bufferView":1,"byteOffset":681252,"componentType":5126,"count":9764,"type":"VEC3"},{"bufferView":2,"byteOffset":454168,"componentType":5126,"count":9764,"type":"VEC2"},{"bufferView":3,"byteOffset":137772,"componentType":5123,"count":25461,"type":"SCALAR"}],"samplers":[{"magFilter":9729,"minFilter":9987}],"images":[{"name":"island_tree_02_nor_gl","uri":"textures/island_tree_02_nor_gl_1k.jpg"},{"name":"island_tree_02_diff","uri":"textures/island_tree_02_diff_1k.jpg"},{"name":"island_tree_02_rough","uri":"textures/island_tree_02_arm_1k.jpg"},{"name":"island_tree_02_leaves_nor_gl","uri":"textures/island_tree_02_leaves_nor_gl_1k.jpg"},{"name":"island_tree_02_leaves_diff-island_tree_02_leaves_alpha","uri":"textures/island_tree_02_leaves_diff_1k.jpg"},{"name":"island_tree_02_leaves_rough","uri":"textures/island_tree_02_leaves_arm_1k.jpg"},{"name":"island_tree_02_branches_nor_gl","uri":"textures/island_tree_02_branches_nor_gl_1k.jpg"},{"name":"island_tree_02_branches_diff","uri":"textures/island_tree_02_branches_diff_1k.jpg"},{"name":"island_tree_02_branches_rough","uri":"textures/island_tree_02_branches_arm_1k.jpg"}],"textures":[{"sampler":0,"source":0},{"sampler":0,"source":1},{"sampler":0,"source":2},{"sampler":0,"source":3},{"sampler":0,"source":4},{"sampler":0,"source":5},{"sampler":0,"source":6},{"sampler":0,"source":7},{"sampler":0,"source":8}],"materials":[{"name":"island_tree_02","pbrMetallicRoughness":{"baseColorTexture":{"index":1},"metallicFactor":0,"metallicRoughnessTexture":{"index":2}},"normalTexture":{"index":0},"doubleSided":true},{"name":"island_tree_02_leaves","pbrMetallicRoughness":{"baseColorTexture":{"index":4},"metallicFactor":0,"metallicRoughnessTexture":{"index":5}},"normalTexture":{"index":3},"doubleSided":true},{"name":"island_tree_02_branches","pbrMetallicRoughness":{"baseColorTexture":{"index":7,"extensions":{"KHR_texture_transform":{"offset":[0,-2.4000001],"scale":[15,3.4000001]}}},"metallicFactor":0,"metallicRoughnessTexture":{"index":8,"extensions":{"KHR_texture_transform":{"offset":[0,-2.4000001],"scale":[15,3.4000001]}}}},"normalTexture":{"index":6,"scale":0.5,"extensions":{"KHR_texture_transform":{"offset":[0,-2.4000001],"scale":[15,3.4000001]}}},"doubleSided":true,"extensions":{"KHR_materials_ior":{"ior":1.45000005},"KHR_materials_specular":{"specularFactor":0.410000026}}}],"meshes":[{"primitives":[{"attributes":{"POSITION":0,"NORMAL":1,"TEXCOORD_0":2},"indices":3,"material":0},{"attributes":{"POSITION":4,"NORMAL":5,"TEXCOORD_0":6},"indices":7,"material":1},{"attributes":{"POSITION":8,"NORMAL":9,"TEXCOORD_0":10},"indices":11,"material":2}]}],"nodes":[{"name":"island_tree_02_LOD0","mesh":0}],"scenes":[{"name":"Scene","nodes":[0]}],"scene":0}