{"asset":{"version":"2.0","generator":"gltfpack 1.3"},"buffers":[{"uri":"shrub_02.bin","byteLength":302400}],"bufferViews":[{"buffer":0,"byteOffset":0,"byteLength":91944,"byteStride":12,"target":34962},{"buffer":0,"byteOffset":91944,"byteLength":61296,"byteStride":8,"target":34962},{"buffer":0,"byteOffset":153240,"byteLength":91944,"byteStride":12,"target":34962},{"buffer":0,"byteOffset":245184,"byteLength":57216,"target":34963}],"accessors":[{"bufferView":0,"byteOffset":0,"componentType":5126,"count":2106,"type":"VEC3","min":[-0.943998814,-0.0238960329,-0.860930622],"max":[0.615655959,1.682181,0.420274854]},{"bufferView":1,"byteOffset":0,"componentType":5126,"count":2106,"type":"VEC2"},{"bufferView":2,"byteOffset":0,"componentType":5126,"count":2106,"type":"VEC3"},{"bufferView":3,"byteOffset":0,"componentType":5123,"count":7968,"type":"SCALAR"},{"bufferView":0,"byteOffset":25272,"componentType":5126,"count":1488,"type":"VEC3","min":[-0.403801531,-0.0979029536,-1.07738006],"max":[0.960930169,1.08447671,0.307781875]},{"bufferView":1,"byteOffset":16848,"componentType":5126,"count":1488,"type":"VEC2"},{"bufferView":2,"byteOffset":25272,"componentType":5126,"count":1488,"type":"VEC3"},{"bufferView":3,"byteOffset":15936,"componentType":5123,"count":5502,"type":"SCALAR"},{"bufferView":0,"byteOffset":43128,"componentType":5126,"count":2613,"type":"VEC3","min":[-0.881032586,-0.28487882,-1.22633982],"max":[1.2879777,0.871996701,0.241436571]},{"bufferView":1,"byteOffset":28752,"componentType":5126,"count":2613,"type":"VEC2"},{"bufferView":2,"byteOffset":43128,"componentType":5126,"count":2613,"type":"VEC3"},{"bufferView":3,"byteOffset":26940,"componentType":5123,"count":9693,"type":"SCALAR"},{"bufferView":0,"byteOffset":74484,"componentType":5126,"count":1455,"type":"VEC3","min":[-1.04907465,-0.085099943,-0.419100195],"max":[0.222779155,1.15307248,0.563500941]},{"bufferView":1,"byteOffset":49656,"componentType":5126,"count":1455,"type":"VEC2"},{"bufferView":2,"byteOffset":74484,"componentType":5126,"count":1455,"type":"VEC3"},{"bufferView":3,"byteOffset":46326,"componentType":5123,"count":5445,"type":"SCALAR"}],"samplers":[{"magFilter":9729,"minFilter":9987}],"images":[{"name":"shrub_02_nor_gl","uri":"textures/shrub_02_nor_gl_1k.jpg"},{"name":"shrub_02_diff","uri":"textures/shrub_02_diff_1k.jpg"},{"name":"shrub_02_rough","uri":"textures/shrub_02_arm_1k.jpg"}],"textures":[{"sampler":0,"source":0},{"sampler":0,"source":1},{"sampler":0,"source":2}],"materials":[{"name":"shrub_02","pbrMetallicRoughness":{"baseColorTexture":{"index":1},"metallicFactor":0,"metallicRoughnessTexture":{"index":2}},"normalTexture":{"index":0},"doubleSided":true}],"meshes":[{"primitives":[{"attributes":{"POSITION":0,"TEXCOORD_0":1,"NORMAL":2},"indices":3,"material":0}]},{"primitives":[{"attributes":{"POSITION":4,"TEXCOORD_0":5,"NORMAL":6},"indices":7,"material":0}]},{"primitives":[{"attributes":{"POSITION":8,"TEXCOORD_0":9,"NORMAL":10},"indices":11,"material":0}]},{"primitives":[{"attributes":{"POSITION":12,"TEXCOORD_0":13,"NORMAL":14},"indices":15,"material":0}]}],"nodes":[{"name":"shrub_02_a","translation":[-1.54781318,-0.00524063036,-0.0207340568],"rotation":[0.125899121,-0.694768071,0.00609728321,0.708102822],"mesh":0},{"name":"shrub_02_b","translation":[0.000712373876,-0.0063409321,-0.0168079939],"rotation":[0.083589375,-0.746630847,0.262278795,0.605611324],"mesh":1},{"name":"shrub_02_c","translation":[1.55594921,-0.00548440311,-0.00610191654],"rotation":[0.126489863,-0.712975323,0.394396156,0.565789878],"mesh":2},{"name":"shrub_02_d","translation":[3.25866413,-0.0047671455,-0.00544795766],"rotation":[0.0473772958,-0.738322198,-0.300414503,0.601985753],"mesh":3}],"scenes":[{"name":"Scene","nodes":[0,1,2,3]}],"scene":0}