{"asset":{"version":"2.0","generator":"gltfpack 1.3"},"buffers":[{"uri":"gothic_statue.bin","byteLength":537808}],"bufferViews":[{"buffer":0,"byteOffset":0,"byteLength":170472,"byteStride":12,"target":34962},{"buffer":0,"byteOffset":170472,"byteLength":170472,"byteStride":12,"target":34962},{"buffer":0,"byteOffset":340944,"byteLength":113648,"byteStride":8,"target":34962},{"buffer":0,"byteOffset":454592,"byteLength":83214,"target":34963}],"accessors":[{"bufferView":0,"byteOffset":0,"componentType":5126,"count":14206,"type":"VEC3","min":[-0.751280606,-1.20778024,-1.46148956],"max":[0.721409321,0.532117546,0.102268524]},{"bufferView":1,"byteOffset":0,"componentType":5126,"count":14206,"type":"VEC3"},{"bufferView":2,"byteOffset":0,"componentType":5126,"count":14206,"type":"VEC2"},{"bufferView":3,"byteOffset":0,"componentType":5123,"count":41607,"type":"SCALAR"}],"samplers":[{"magFilter":9729,"minFilter":9987}],"images":[{"name":"gothic_statue_nor_gl","uri":"textures/gothic_statue_nor_gl_1k.jpg"},{"name":"gothic_statue_diff","uri":"textures/gothic_statue_diff_1k.jpg"},{"name":"gothic_statue_rough","uri":"textures/gothic_statue_arm_1k.jpg"}],"textures":[{"sampler":0,"source":0},{"sampler":0,"source":1},{"sampler":0,"source":2}],"materials":[{"name":"gothic_statue","pbrMetallicRoughness":{"baseColorTexture":{"index":1},"metallicFactor":0,"metallicRoughnessTexture":{"index":2}},"normalTexture":{"index":0},"doubleSided":true}],"meshes":[{"primitives":[{"attributes":{"POSITION":0,"NORMAL":1,"TEXCOORD_0":2},"indices":3,"material":0}]}],"nodes":[{"name":"gothic_statue","translation":[-0.0289231949,1.19185996,0.272100985],"mesh":0}],"scenes":[{"name":"Scene","nodes":[0]}],"scene":0}