{"asset":{"version":"2.0","generator":"gltfpack 1.3"},"buffers":[{"uri":"rock_moss_set_01.bin","byteLength":333624}],"bufferViews":[{"buffer":0,"byteOffset":0,"byteLength":95328,"byteStride":12,"target":34962},{"buffer":0,"byteOffset":95328,"byteLength":95328,"byteStride":12,"target":34962},{"buffer":0,"byteOffset":190656,"byteLength":63552,"byteStride":8,"target":34962},{"buffer":0,"byteOffset":254208,"byteLength":79416,"target":34963}],"accessors":[{"bufferView":0,"byteOffset":0,"componentType":5126,"count":1611,"type":"VEC3","min":[-1.11402094,-0.65247941,-1.6965996],"max":[1.1219703,0.816129446,1.6643492]},{"bufferView":1,"byteOffset":0,"componentType":5126,"count":1611,"type":"VEC3"},{"bufferView":2,"byteOffset":0,"componentType":5126,"count":1611,"type":"VEC2"},{"bufferView":3,"byteOffset":0,"componentType":5123,"count":7788,"type":"SCALAR"},{"bufferView":0,"byteOffset":19332,"componentType":5126,"count":1528,"type":"VEC3","min":[-1.26355171,-0.465210468,-1.63352144],"max":[1.37401271,0.789874017,1.61930597]},{"bufferView":1,"byteOffset":19332,"componentType":5126,"count":1528,"type":"VEC3"},{"bufferView":2,"byteOffset":12888,"componentType":5126,"count":1528,"type":"VEC2"},{"bufferView":3,"byteOffset":15576,"componentType":5123,"count":6924,"type":"SCALAR"},{"bufferView":0,"byteOffset":37668,"componentType":5126,"count":701,"type":"VEC3","min":[-1.01755035,-0.405904323,-1.02361977],"max":[1.09058297,0.68622613,1.0559659]},{"bufferView":1,"byteOffset":37668,"componentType":5126,"count":701,"type":"VEC3"},{"bufferView":2,"byteOffset":25112,"componentType":5126,"count":701,"type":"VEC2"},{"bufferView":3,"byteOffset":29424,"componentType":5123,"count":3330,"type":"SCALAR"},{"bufferView":0,"byteOffset":46080,"componentType":5126,"count":1265,"type":"VEC3","min":[-0.944841504,-0.658104181,-0.884475529],"max":[1.17699683,1.10277593,1.07732236]},{"bufferView":1,"byteOffset":46080,"componentType":5126,"count":1265,"type":"VEC3"},{"bufferView":2,"byteOffset":30720,"componentType":5126,"count":1265,"type":"VEC2"},{"bufferView":3,"byteOffset":36084,"componentType":5123,"count":6348,"type":"SCALAR"},{"bufferView":0,"byteOffset":61260,"componentType":5126,"count":1793,"type":"VEC3","min":[-0.858346641,-0.572554469,-1.34995067],"max":[0.956046402,0.6322999,1.64699483]},{"bufferView":1,"byteOffset":61260,"componentType":5126,"count":1793,"type":"VEC3"},{"bufferView":2,"byteOffset":40840,"componentType":5126,"count":1793,"type":"VEC2"},{"bufferView":3,"byteOffset":48780,"componentType":5123,"count":9924,"type":"SCALAR"},{"bufferView":0,"byteOffset":82776,"componentType":5126,"count":1046,"type":"VEC3","min":[-1.20077717,-0.520463526,-1.47944534],"max":[0.917500734,0.733796,1.26516259]},{"bufferView":1,"byteOffset":82776,"componentType":5126,"count":1046,"type":"VEC3"},{"bufferView":2,"byteOffset":55184,"componentType":5126,"count":1046,"type":"VEC2"},{"bufferView":3,"byteOffset":68628,"componentType":5123,"count":5394,"type":"SCALAR"}],"samplers":[{"magFilter":9729,"minFilter":9987}],"images":[{"name":"rock_moss_set_01_nor_gl","uri":"textures/rock_moss_set_01_nor_gl_1k.jpg"},{"name":"rock_moss_set_01_diff","uri":"textures/rock_moss_set_01_diff_1k.jpg"},{"name":"rock_moss_set_01_rough","uri":"textures/rock_moss_set_01_rough_1k.jpg"}],"textures":[{"sampler":0,"source":0},{"sampler":0,"source":1},{"sampler":0,"source":2}],"materials":[{"name":"rock_moss_set_01","pbrMetallicRoughness":{"baseColorTexture":{"index":1},"metallicFactor":0,"metallicRoughnessTexture":{"index":2}},"normalTexture":{"index":0},"doubleSided":true}],"meshes":[{"primitives":[{"attributes":{"POSITION":0,"NORMAL":1,"TEXCOORD_0":2},"indices":3,"material":0}]},{"primitives":[{"attributes":{"POSITION":4,"NORMAL":5,"TEXCOORD_0":6},"indices":7,"material":0}]},{"primitives":[{"attributes":{"POSITION":8,"NORMAL":9,"TEXCOORD_0":10},"indices":11,"material":0}]},{"primitives":[{"attributes":{"POSITION":12,"NORMAL":13,"TEXCOORD_0":14},"indices":15,"material":0}]},{"primitives":[{"attributes":{"POSITION":16,"NORMAL":17,"TEXCOORD_0":18},"indices":19,"material":0}]},{"primitives":[{"attributes":{"POSITION":20,"NORMAL":21,"TEXCOORD_0":22},"indices":23,"material":0}]}],"nodes":[{"name":"rock_moss_set_01_rock01","translation":[-2.79999995,0,-2.12278128],"mesh":0},{"name":"rock_moss_set_01_rock02","translation":[0,0,-2.12278128],"mesh":1},{"name":"rock_moss_set_01_rock03","translation":[3,0,-2.12278128],"mesh":2},{"name":"rock_moss_set_01_rock04","translation":[-2.70000005,0,1.57721865],"mesh":3},{"name":"rock_moss_set_01_rock05","translation":[0.150000006,0,1.47721863],"mesh":4},{"name":"rock_moss_set_01_rock06","translation":[2.79999995,0,1.57721865],"mesh":5}],"scenes":[{"name":"Scene","nodes":[0,1,2,3,4,5]}],"scene":0}