{"asset":{"version":"2.0","generator":"gltfpack 1.3"},"buffers":[{"uri":"rock_moss_set_02.bin","byteLength":317864}],"bufferViews":[{"buffer":0,"byteOffset":0,"byteLength":89652,"byteStride":12,"target":34962},{"buffer":0,"byteOffset":89652,"byteLength":89652,"byteStride":12,"target":34962},{"buffer":0,"byteOffset":179304,"byteLength":59768,"byteStride":8,"target":34962},{"buffer":0,"byteOffset":239072,"byteLength":78792,"target":34963}],"accessors":[{"bufferView":0,"byteOffset":0,"componentType":5126,"count":878,"type":"VEC3","min":[-0.53165108,-0.00872351509,-0.4441275],"max":[0.671691537,0.515890062,0.534797013]},{"bufferView":1,"byteOffset":0,"componentType":5126,"count":878,"type":"VEC3"},{"bufferView":2,"byteOffset":0,"componentType":5126,"count":878,"type":"VEC2"},{"bufferView":3,"byteOffset":0,"componentType":5123,"count":4800,"type":"SCALAR"},{"bufferView":0,"byteOffset":10536,"componentType":5126,"count":878,"type":"VEC3","min":[-0.777953625,-0.028504001,-0.525514066],"max":[0.850974679,0.57158643,0.485383838]},{"bufferView":1,"byteOffset":10536,"componentType":5126,"count":878,"type":"VEC3"},{"bufferView":2,"byteOffset":7024,"componentType":5126,"count":878,"type":"VEC2"},{"bufferView":3,"byteOffset":9600,"componentType":5123,"count":4734,"type":"SCALAR"},{"bufferView":0,"byteOffset":21072,"componentType":5126,"count":1251,"type":"VEC3","min":[-0.758025408,-0.0322212242,-0.723828912],"max":[0.819786727,0.703789115,0.717133701]},{"bufferView":1,"byteOffset":21072,"componentType":5126,"count":1251,"type":"VEC3"},{"bufferView":2,"byteOffset":14048,"componentType":5126,"count":1251,"type":"VEC2"},{"bufferView":3,"byteOffset":19068,"componentType":5123,"count":6336,"type":"SCALAR"},{"bufferView":0,"byteOffset":36084,"componentType":5126,"count":1172,"type":"VEC3","min":[-1.08451927,-0.659029841,-1.13241744],"max":[1.00378191,0.592622101,0.00228196615]},{"bufferView":1,"byteOffset":36084,"componentType":5126,"count":1172,"type":"VEC3"},{"bufferView":2,"byteOffset":24056,"componentType":5126,"count":1172,"type":"VEC2"},{"bufferView":3,"byteOffset":31740,"componentType":5123,"count":6168,"type":"SCALAR"},{"bufferView":0,"byteOffset":50148,"componentType":5126,"count":893,"type":"VEC3","min":[-1.06226265,-0.0243192725,-0.784562171],"max":[1.13215899,0.744134545,0.76707387]},{"bufferView":1,"byteOffset":50148,"componentType":5126,"count":893,"type":"VEC3"},{"bufferView":2,"byteOffset":33432,"componentType":5126,"count":893,"type":"VEC2"},{"bufferView":3,"byteOffset":44076,"componentType":5123,"count":4818,"type":"SCALAR"},{"bufferView":0,"byteOffset":60864,"componentType":5126,"count":1253,"type":"VEC3","min":[-0.985558867,-0.257334173,-0.953721285],"max":[0.967081308,1.05028892,0.572351098]},{"bufferView":1,"byteOffset":60864,"componentType":5126,"count":1253,"type":"VEC3"},{"bufferView":2,"byteOffset":40576,"componentType":5126,"count":1253,"type":"VEC2"},{"bufferView":3,"byteOffset":53712,"componentType":5123,"count":6648,"type":"SCALAR"},{"bufferView":0,"byteOffset":75900,"componentType":5126,"count":1146,"type":"VEC3","min":[-1.31405485,-0.469435394,-0.901753783],"max":[1.17795062,0.620662808,0.887512565]},{"bufferView":1,"byteOffset":75900,"componentType":5126,"count":1146,"type":"VEC3"},{"bufferView":2,"byteOffset":50600,"componentType":5126,"count":1146,"type":"VEC2"},{"bufferView":3,"byteOffset":67008,"componentType":5123,"count":5892,"type":"SCALAR"}],"samplers":[{"magFilter":9729,"minFilter":9987}],"images":[{"name":"rock_moss_set_02_nor_gl","uri":"textures/rock_moss_set_02_nor_gl_1k.jpg"},{"name":"rock_moss_set_02_diff","uri":"textures/rock_moss_set_02_diff_1k.jpg"},{"name":"rock_moss_set_02_rough","uri":"textures/rock_moss_set_02_rough_1k.jpg"}],"textures":[{"sampler":0,"source":0},{"sampler":0,"source":1},{"sampler":0,"source":2}],"materials":[{"name":"rock_moss_set_02","pbrMetallicRoughness":{"baseColorTexture":{"index":1},"metallicFactor":0,"metallicRoughnessTexture":{"index":2}},"normalTexture":{"index":0},"doubleSided":true}],"meshes":[{"primitives":[{"attributes":{"POSITION":0,"NORMAL":1,"TEXCOORD_0":2},"indices":3,"material":0}]},{"primitives":[{"attributes":{"POSITION":4,"NORMAL":5,"TEXCOORD_0":6},"indices":7,"material":0}]},{"primitives":[{"attributes":{"POSITION":8,"NORMAL":9,"TEXCOORD_0":10},"indices":11,"material":0}]},{"primitives":[{"attributes":{"POSITION":12,"NORMAL":13,"TEXCOORD_0":14},"indices":15,"material":0}]},{"primitives":[{"attributes":{"POSITION":16,"NORMAL":17,"TEXCOORD_0":18},"indices":19,"material":0}]},{"primitives":[{"attributes":{"POSITION":20,"NORMAL":21,"TEXCOORD_0":22},"indices":23,"material":0}]},{"primitives":[{"attributes":{"POSITION":24,"NORMAL":25,"TEXCOORD_0":26},"indices":27,"material":0}]}],"nodes":[{"name":"rock_moss_set_02_rock08","translation":[-0.967231989,0,0.728856385],"mesh":0},{"name":"rock_moss_set_02_rock09","translation":[0.854141474,0,0.728856385],"mesh":1},{"name":"rock_moss_set_02_rock12","translation":[0.160048723,0,-0.960765183],"mesh":2},{"name":"rock_moss_set_02_rock13","translation":[2.66523671,0.343851119,-0.558145821],"mesh":3},{"name":"rock_moss_set_02_rock10","translation":[3.33057046,0,0.728856385],"mesh":4},{"name":"rock_moss_set_02_rock11","translation":[-2.12465644,0,-0.960765183],"mesh":5},{"name":"rock_moss_set_02_rock07","translation":[-2.91642118,0.226340219,0.728856385],"scale":[0.678986132,0.678986132,0.678986132],"mesh":6}],"scenes":[{"name":"Scene","nodes":[0,1,2,3,4,5,6]}],"scene":0}