{"asset":{"version":"2.0","generator":"gltfpack 1.3"},"buffers":[{"uri":"root_cluster_01.bin","byteLength":447956}],"bufferViews":[{"buffer":0,"byteOffset":0,"byteLength":127440,"byteStride":12,"target":34962},{"buffer":0,"byteOffset":127440,"byteLength":127440,"byteStride":12,"target":34962},{"buffer":0,"byteOffset":254880,"byteLength":84960,"byteStride":8,"target":34962},{"buffer":0,"byteOffset":339840,"byteLength":108114,"target":34963}],"accessors":[{"bufferView":0,"byteOffset":0,"componentType":5126,"count":10620,"type":"VEC3","min":[-2.06190467,-0.0437193885,-0.986629963],"max":[2.0582509,1.46151161,1.68901408]},{"bufferView":1,"byteOffset":0,"componentType":5126,"count":10620,"type":"VEC3"},{"bufferView":2,"byteOffset":0,"componentType":5126,"count":10620,"type":"VEC2"},{"bufferView":3,"byteOffset":0,"componentType":5123,"count":54057,"type":"SCALAR"}],"samplers":[{"magFilter":9729,"minFilter":9987}],"images":[{"name":"root_cluster_01_nor_gl","uri":"textures/root_cluster_01_nor_gl_1k.jpg"},{"name":"root_cluster_01_diff","uri":"textures/root_cluster_01_diff_1k.jpg"},{"name":"root_cluster_01_rough","uri":"textures/root_cluster_01_arm_1k.jpg"}],"textures":[{"sampler":0,"source":0},{"sampler":0,"source":1},{"sampler":0,"source":2}],"materials":[{"name":"root_cluster_01","pbrMetallicRoughness":{"baseColorTexture":{"index":1},"metallicFactor":0,"metallicRoughnessTexture":{"index":2}},"normalTexture":{"index":0},"doubleSided":true}],"meshes":[{"primitives":[{"attributes":{"POSITION":0,"NORMAL":1,"TEXCOORD_0":2},"indices":3,"material":0}]}],"nodes":[{"name":"root_cluster_01","mesh":0}],"scenes":[{"name":"Scene","nodes":[0]}],"scene":0}