{"asset":{"version":"2.0","generator":"gltfpack 1.3"},"buffers":[{"uri":"treasure_chest.bin","byteLength":424484}],"bufferViews":[{"buffer":0,"byteOffset":0,"byteLength":131292,"byteStride":12,"target":34962},{"buffer":0,"byteOffset":131292,"byteLength":131292,"byteStride":12,"target":34962},{"buffer":0,"byteOffset":262584,"byteLength":87528,"byteStride":8,"target":34962},{"buffer":0,"byteOffset":350112,"byteLength":74370,"target":34963}],"accessors":[{"bufferView":0,"byteOffset":0,"componentType":5126,"count":5399,"type":"VEC3","min":[-0.479518265,-0.0181555897,-0.260322988],"max":[0.479518265,0.407502621,0.255299002]},{"bufferView":1,"byteOffset":0,"componentType":5126,"count":5399,"type":"VEC3"},{"bufferView":2,"byteOffset":0,"componentType":5126,"count":5399,"type":"VEC2"},{"bufferView":3,"byteOffset":0,"componentType":5123,"count":18735,"type":"SCALAR"},{"bufferView":0,"byteOffset":64788,"componentType":5126,"count":4517,"type":"VEC3","min":[-0.448763222,-0.00382914161,-0.00363784982],"max":[0.448883981,0.196088031,0.517931044]},{"bufferView":1,"byteOffset":64788,"componentType":5126,"count":4517,"type":"VEC3"},{"bufferView":2,"byteOffset":43192,"componentType":5126,"count":4517,"type":"VEC2"},{"bufferView":3,"byteOffset":37470,"componentType":5123,"count":15663,"type":"SCALAR"},{"bufferView":0,"byteOffset":118992,"componentType":5126,"count":258,"type":"VEC3","min":[-0.00722077489,-0.0708242804,-0.0822535604],"max":[0.00765475631,0.0072208643,0.0822535381]},{"bufferView":1,"byteOffset":118992,"componentType":5126,"count":258,"type":"VEC3"},{"bufferView":2,"byteOffset":79328,"componentType":5126,"count":258,"type":"VEC2"},{"bufferView":3,"byteOffset":68796,"componentType":5123,"count":624,"type":"SCALAR"},{"bufferView":0,"byteOffset":122088,"componentType":5126,"count":259,"type":"VEC3","min":[-0.00765451789,-0.0712642521,-0.0822535604],"max":[0.00722080469,0.0072208643,0.0822535381]},{"bufferView":1,"byteOffset":122088,"componentType":5126,"count":259,"type":"VEC3"},{"bufferView":2,"byteOffset":81392,"componentType":5126,"count":259,"type":"VEC2"},{"bufferView":3,"byteOffset":70044,"componentType":5123,"count":624,"type":"SCALAR"},{"bufferView":0,"byteOffset":125196,"componentType":5126,"count":508,"type":"VEC3","min":[-0.051419083,-0.170103714,-0.00595968962],"max":[0.051419083,0.0014294954,0.00382518768]},{"bufferView":1,"byteOffset":125196,"componentType":5126,"count":508,"type":"VEC3"},{"bufferView":2,"byteOffset":83464,"componentType":5126,"count":508,"type":"VEC2"},{"bufferView":3,"byteOffset":71292,"componentType":5123,"count":1539,"type":"SCALAR"}],"samplers":[{"magFilter":9729,"minFilter":9987}],"images":[{"name":"treasure_chest_nor_gl","uri":"textures/treasure_chest_nor_gl_1k.jpg"},{"name":"treasure_chest_diff","uri":"textures/treasure_chest_diff_1k.jpg"},{"name":"treasure_chest_metal-treasure_chest_rough","uri":"textures/treasure_chest_arm_1k.jpg"}],"textures":[{"sampler":0,"source":0},{"sampler":0,"source":1},{"sampler":0,"source":2}],"materials":[{"name":"treasure_chest","pbrMetallicRoughness":{"baseColorTexture":{"index":1},"metallicRoughnessTexture":{"index":2}},"normalTexture":{"index":0},"doubleSided":true}],"meshes":[{"primitives":[{"attributes":{"POSITION":0,"NORMAL":1,"TEXCOORD_0":2},"indices":3,"material":0}]},{"primitives":[{"attributes":{"POSITION":4,"NORMAL":5,"TEXCOORD_0":6},"indices":7,"material":0}]},{"primitives":[{"attributes":{"POSITION":8,"NORMAL":9,"TEXCOORD_0":10},"indices":11,"material":0}]},{"primitives":[{"attributes":{"POSITION":12,"NORMAL":13,"TEXCOORD_0":14},"indices":15,"material":0}]},{"primitives":[{"attributes":{"POSITION":16,"NORMAL":17,"TEXCOORD_0":18},"indices":19,"material":0}]}],"nodes":[{"name":"treasure_chest_bottom","translation":[0,0.0164734796,0],"mesh":0},{"name":"treasure_chest_lid","translation":[0,0.420501679,-0.257107705],"mesh":1},{"name":"treasure_chest_handle_left","translation":[-0.468204856,0.294007629,0],"mesh":2},{"name":"treasure_chest_handle_right","translation":[0.468204618,0.294007629,0],"mesh":3},{"name":"treasure_chest_lock","translation":[0,0.42232576,0.257767767],"mesh":4}],"scenes":[{"name":"Scene","nodes":[0,1,2,3,4]}],"scene":0}