{"asset":{"version":"2.0","generator":"gltfpack 1.3"},"buffers":[{"uri":"boulder_01.bin","byteLength":360976}],"bufferViews":[{"buffer":0,"byteOffset":0,"byteLength":105612,"byteStride":12,"target":34962},{"buffer":0,"byteOffset":105612,"byteLength":105612,"byteStride":12,"target":34962},{"buffer":0,"byteOffset":211224,"byteLength":70408,"byteStride":8,"target":34962},{"buffer":0,"byteOffset":281632,"byteLength":79344,"target":34963}],"accessors":[{"bufferView":0,"byteOffset":0,"componentType":5126,"count":8801,"type":"VEC3","min":[-0.746699631,-0.0729741976,-0.948440492],"max":[0.523205638,0.928579032,0.8803128]},{"bufferView":1,"byteOffset":0,"componentType":5126,"count":8801,"type":"VEC3"},{"bufferView":2,"byteOffset":0,"componentType":5126,"count":8801,"type":"VEC2"},{"bufferView":3,"byteOffset":0,"componentType":5123,"count":39672,"type":"SCALAR"}],"samplers":[{"magFilter":9729,"minFilter":9987}],"images":[{"name":"boulder_01_nor_gl","uri":"textures/boulder_01_nor_gl_1k.jpg"},{"name":"boulder_01_diff","uri":"textures/boulder_01_diff_1k.jpg"},{"name":"boulder_01_rough","uri":"textures/boulder_01_arm_1k.jpg"}],"textures":[{"sampler":0,"source":0},{"sampler":0,"source":1},{"sampler":0,"source":2}],"materials":[{"name":"boulder_01","pbrMetallicRoughness":{"baseColorTexture":{"index":1},"metallicFactor":0,"metallicRoughnessTexture":{"index":2}},"normalTexture":{"index":0},"doubleSided":true}],"meshes":[{"primitives":[{"attributes":{"POSITION":0,"NORMAL":1,"TEXCOORD_0":2},"indices":3,"material":0}]}],"nodes":[{"name":"boulder_01","mesh":0}],"scenes":[{"name":"Scene","nodes":[0]}],"scene":0}